# xmcd CD database file
#
# Track frame offsets:
#	150
#	17142
#	29694
#	52863
#	85352
#	106502
#	133758
#	147469
#	158427
#	168595
#	195669
#
# Disc length: 3081 seconds
#
# Revision: 0
# Processed by: cddbd v1.5.2PL0 Copyright (c) Steve Scherf et al.
# Submitted via: CDex 1.51
#
DISCID=8c0c070b
DTITLE=KlezmaFour - The Trip...
DYEAR=1900
DGENRE=Jazz
TTITLE0=The Trip... (Lublin Station)
TTITLE1=The Broom
TTITLE2=The Sphere of the Force
TTITLE3=U.T.A. (Fischerlied)
TTITLE4=Balkan
TTITLE5=The Wristbreaker
TTITLE6=Ajde Jano
TTITLE7=Simontov and Mazeltov
TTITLE8=Va Bank Ragetime
TTITLE9=Tuxedo Junction to Chattanoga Choo Choo
TTITLE10=Data: Video and Photo
EXTD=
EXTT0=
EXTT1=
EXTT2=
EXTT3=
EXTT4=
EXTT5=
EXTT6=
EXTT7=
EXTT8=
EXTT9=
EXTT10=
PLAYORDER=
